<mxfile host="app.diagrams.net" modified="2022-04-12T08:13:07.815Z" agent="5.0 (X11; Linux x86_64) AppleWebKit/537.36 (KHTML, like Gecko) Chrome/100.0.4896.75 Safari/537.36 Edg/100.0.1185.36" etag="oY8SwCk0IqI-lwSKBJLv" version="17.4.2" type="github">
  <diagram id="YJrwdoqkivSocRl9cA38" name="Page-1">
    <mxGraphModel dx="1038" dy="583" grid="1" gridSize="10" guides="1" tooltips="1" connect="1" arrows="1" fold="1" page="1" pageScale="1" pageWidth="827" pageHeight="1169" math="1" shadow="0">
      <root>
        <mxCell id="0" />
        <mxCell id="1" parent="0" />
        <mxCell id="iD6kjVdtd8yfhUJygVZn-5" style="edgeStyle=orthogonalEdgeStyle;rounded=0;orthogonalLoop=1;jettySize=auto;html=1;exitX=0.5;exitY=1;exitDx=0;exitDy=0;entryX=0.5;entryY=0;entryDx=0;entryDy=0;fontFamily=Times New Roman;fontSize=16;" edge="1" parent="1" source="iD6kjVdtd8yfhUJygVZn-1" target="iD6kjVdtd8yfhUJygVZn-2">
          <mxGeometry relative="1" as="geometry" />
        </mxCell>
        <mxCell id="iD6kjVdtd8yfhUJygVZn-1" value="give an initial time step \(\Delta t\)" style="rounded=1;whiteSpace=wrap;html=1;fontFamily=Times New Roman;fontSize=16;" vertex="1" parent="1">
          <mxGeometry x="220.5" y="40" width="199" height="40" as="geometry" />
        </mxCell>
        <mxCell id="iD6kjVdtd8yfhUJygVZn-2" value="calculated the erosion/deposition height \(\Delta h\) on each face" style="rounded=1;whiteSpace=wrap;html=1;fontFamily=Times New Roman;fontSize=16;" vertex="1" parent="1">
          <mxGeometry x="200" y="120" width="240" height="60" as="geometry" />
        </mxCell>
        <mxCell id="iD6kjVdtd8yfhUJygVZn-3" style="edgeStyle=orthogonalEdgeStyle;rounded=0;orthogonalLoop=1;jettySize=auto;html=1;exitX=0.5;exitY=1;exitDx=0;exitDy=0;fontFamily=Times New Roman;fontSize=16;" edge="1" parent="1" source="iD6kjVdtd8yfhUJygVZn-2" target="iD6kjVdtd8yfhUJygVZn-2">
          <mxGeometry relative="1" as="geometry" />
        </mxCell>
      </root>
    </mxGraphModel>
  </diagram>
</mxfile>
